<?xml version="1.0" encoding="UTF-8"?>
<svg width="24px" height="24px" viewBox="0 0 24 24" version="1.1" xmlns="http://www.w3.org/2000/svg">
    <g stroke="none" stroke-width="1" fill="none" fill-rule="evenodd">
        <path d="M12,4 C13.6568542,4 15,5.34314575 15,7 L15,7.10089987 C16.7252272,7.56051419 18,9.13780671 18,11 C18,13.209139 16.209139,15 14,15 L10,15 C7.790861,15 6,13.209139 6,11 C6,9.13780671 7.27477279,7.56051419 9,7.10089987 L9,7 C9,5.34314575 10.3431458,4 12,4 Z M12,6 C11.4477153,6 11,6.44771525 11,7 L11,8 L10,8 C8.34314575,8 7,9.34314575 7,11 C7,12.6568542 8.34314575,14 10,14 L14,14 C15.6568542,14 17,12.6568542 17,11 C17,9.34314575 15.6568542,8 14,8 L13,8 L13,7 C13,6.44771525 12.5522847,6 12,6 Z" fill="#1e2937" fill-rule="nonzero"/>
        <rect x="8" y="15" width="8" height="5" rx="1" fill="#1e2937"/>
    </g>
</svg>
